HIERARCHY
ROOT newVegas:Hips
{
	OFFSET 0.000000 96.479958 0.000000
	CHANNELS 6 Xposition Yposition Zposition Xrotation Yrotation Zrotation
	JOINT newVegas:Pelvis
	{
		OFFSET 0.000000 0.000000 0.000000
		CHANNELS 3 Xrotation Yrotation Zrotation
		JOINT newVegas:LeftUpLeg
		{
			OFFSET 18.735201 -5.666702 -4.541200
			CHANNELS 3 Xrotation Yrotation Zrotation
			JOINT newVegas:LeftLeg
			{
				OFFSET -0.021200 -31.938179 0.493100
				CHANNELS 3 Xrotation Yrotation Zrotation
				JOINT newVegas:LeftFoot
				{
					OFFSET 0.021200 -31.938179 -4.336299
					CHANNELS 3 Xrotation Yrotation Zrotation
					JOINT newVegas:LeftToeBase
					{
						OFFSET 0.943001 -26.722000 15.023500
						CHANNELS 3 Xrotation Yrotation Zrotation
						End Site
						{
							OFFSET 0.000000 30.670183 0.000000
						}
					}
				}
				JOINT newVegas:Left_PantLeg
				{
					OFFSET 0.663870 -9.044666 -1.108900
					CHANNELS 3 Xrotation Yrotation Zrotation
					End Site
					{
						OFFSET 1.415995 20.635357 0.000000
					}
				}
			}
		}
		JOINT newVegas:RightUpLeg
		{
			OFFSET -18.735201 -5.666702 -4.541200
			CHANNELS 3 Xrotation Yrotation Zrotation
			JOINT newVegas:RightLeg
			{
				OFFSET 0.018946 -31.938133 0.493100
				CHANNELS 3 Xrotation Yrotation Zrotation
				JOINT newVegas:RightFoot
				{
					OFFSET -0.018946 -31.938126 -4.336299
					CHANNELS 3 Xrotation Yrotation Zrotation
					JOINT newVegas:RightToeBase
					{
						OFFSET -0.943001 -26.722004 15.023500
						CHANNELS 3 Xrotation Yrotation Zrotation
						End Site
						{
							OFFSET 0.000000 30.670187 0.000000
						}
					}
				}
				JOINT newVegas:Right_PantLeg
				{
					OFFSET -0.661674 -9.044716 -1.108900
					CHANNELS 3 Xrotation Yrotation Zrotation
					End Site
					{
						OFFSET -1.415958 20.635269 0.000000
					}
				}
			}
		}
	}
	JOINT newVegas:Spine
	{
		OFFSET 0.000000 10.199997 -0.299500
		CHANNELS 3 Xrotation Yrotation Zrotation
		JOINT newVegas:Spine1
		{
			OFFSET 0.000000 11.900002 -1.516600
			CHANNELS 3 Xrotation Yrotation Zrotation
			JOINT newVegas:Spine2
			{
				OFFSET 0.000000 13.600006 -2.842500
				CHANNELS 3 Xrotation Yrotation Zrotation
				JOINT newVegas:Neck
				{
					OFFSET 0.000000 9.624100 -2.890100
					CHANNELS 3 Xrotation Yrotation Zrotation
					JOINT newVegas:Head
					{
						OFFSET 0.000000 14.068802 -1.351900
						CHANNELS 3 Xrotation Yrotation Zrotation
						JOINT newVegas:Hair_Back
						{
							OFFSET 0.000000 3.231903 -17.524799
							CHANNELS 3 Xrotation Yrotation Zrotation
							End Site
							{
								OFFSET 0.000000 19.849884 0.000000
							}
						}
						JOINT newVegas:Hair_Front
						{
							OFFSET 0.000000 31.260406 4.573800
							CHANNELS 3 Xrotation Yrotation Zrotation
							JOINT newVegas:Hair_Front1
							{
								OFFSET 0.000000 2.284103 11.993300
								CHANNELS 3 Xrotation Yrotation Zrotation
								JOINT newVegas:Hair_Front2
								{
									OFFSET 0.000000 2.284103 11.993300
									CHANNELS 3 Xrotation Yrotation Zrotation
									End Site
									{
										OFFSET 0.000000 12.208862 0.000000
									}
								}
							}
						}
						JOINT newVegas:Jowel
						{
							OFFSET 0.000000 -7.458206 6.864100
							CHANNELS 3 Xrotation Yrotation Zrotation
							End Site
							{
								OFFSET 0.000000 19.849884 0.000000
							}
						}
					}
				}
				JOINT newVegas:LeftShoulder
				{
					OFFSET 15.263000 10.923401 -0.547700
					CHANNELS 3 Xrotation Yrotation Zrotation
					JOINT newVegas:LeftArm
					{
						OFFSET 25.438599 -2.830597 -13.032500
						CHANNELS 3 Xrotation Yrotation Zrotation
						JOINT newVegas:LeftForeArm
						{
							OFFSET 29.960503 0.000000 0.000000
							CHANNELS 3 Xrotation Yrotation Zrotation
							JOINT newVegas:LeftHand
							{
								OFFSET 27.849251 0.000000 0.000000
								CHANNELS 3 Xrotation Yrotation Zrotation
								JOINT newVegas:LeftHandThumb1
								{
									OFFSET 4.487587 -3.305161 6.305391
									CHANNELS 3 Xrotation Yrotation Zrotation
									JOINT newVegas:LeftHandThumb2
									{
										OFFSET 5.480453 -3.164139 3.164143
										CHANNELS 3 Xrotation Yrotation Zrotation
										JOINT newVegas:LeftHandThumb3
										{
											OFFSET 5.159721 -2.978973 2.978967
											CHANNELS 3 Xrotation Yrotation Zrotation
											End Site
											{
												OFFSET 2.494507 5.926697 1.738678
											}
										}
									}
								}
								JOINT newVegas:LeftHandIndex1
								{
									OFFSET 18.578728 -0.527832 5.208049
									CHANNELS 3 Xrotation Yrotation Zrotation
									JOINT newVegas:LeftHandIndex2
									{
										OFFSET 3.192009 0.000000 0.000000
										CHANNELS 3 Xrotation Yrotation Zrotation
										JOINT newVegas:LeftHandIndex3
										{
											OFFSET 3.835129 0.000000 0.000000
											CHANNELS 3 Xrotation Yrotation Zrotation
											End Site
											{
												OFFSET -0.034599 3.816971 0.371180
											}
										}
									}
								}
								JOINT newVegas:LeftHandMiddle1
								{
									OFFSET 18.476105 0.000000 0.000000
									CHANNELS 3 Xrotation Yrotation Zrotation
									JOINT newVegas:LeftHandMiddle2
									{
										OFFSET 3.324875 0.000000 0.000000
										CHANNELS 3 Xrotation Yrotation Zrotation
										JOINT newVegas:LeftHandMiddle3
										{
											OFFSET 4.596550 0.000000 0.000000
											CHANNELS 3 Xrotation Yrotation Zrotation
											End Site
											{
												OFFSET 0.057701 4.578827 0.399218
											}
										}
									}
								}
								JOINT newVegas:LeftHandRing1
								{
									OFFSET 17.732719 0.121887 -4.201567
									CHANNELS 3 Xrotation Yrotation Zrotation
									JOINT newVegas:LeftHandRing2
									{
										OFFSET 2.733170 0.000000 0.000000
										CHANNELS 3 Xrotation Yrotation Zrotation
										JOINT newVegas:LeftHandRing3
										{
											OFFSET 3.178268 0.000000 0.000000
											CHANNELS 3 Xrotation Yrotation Zrotation
											End Site
											{
												OFFSET 0.119102 3.170624 0.185394
											}
										}
									}
								}
								JOINT newVegas:LeftHandPinky1
								{
									OFFSET 15.989624 -0.606689 -7.535461
									CHANNELS 3 Xrotation Yrotation Zrotation
									JOINT newVegas:LeftHandPinky2
									{
										OFFSET 2.538986 0.000000 0.000000
										CHANNELS 3 Xrotation Yrotation Zrotation
										JOINT newVegas:LeftHandPinky3
										{
											OFFSET 2.593102 0.000000 0.000000
											CHANNELS 3 Xrotation Yrotation Zrotation
											End Site
											{
												OFFSET -0.150902 2.584198 0.152708
											}
										}
									}
								}
							}
							JOINT newVegas:Left_Sleeve
							{
								OFFSET 0.267448 -0.649796 0.577675
								CHANNELS 3 Xrotation Yrotation Zrotation
								End Site
								{
									OFFSET 0.000000 15.991241 0.000000
								}
							}
							JOINT newVegas:Left_CapeC
							{
								OFFSET 15.715958 -8.608795 -6.935905
								CHANNELS 3 Xrotation Yrotation Zrotation
								JOINT newVegas:Left_CapeC1
								{
									OFFSET 0.000000 -8.688499 0.000000
									CHANNELS 3 Xrotation Yrotation Zrotation
									End Site
									{
										OFFSET 0.000000 8.688499 0.000000
									}
								}
							}
						}
						JOINT newVegas:Left_CapeB
						{
							OFFSET 26.118385 -8.608795 -7.079235
							CHANNELS 3 Xrotation Yrotation Zrotation
							JOINT newVegas:Left_CapeB1
							{
								OFFSET 0.000000 -8.688499 0.000000
								CHANNELS 3 Xrotation Yrotation Zrotation
								End Site
								{
									OFFSET 0.000000 8.688499 0.000000
								}
							}
						}
						JOINT newVegas:Left_CapeA
						{
							OFFSET 5.115639 -8.608795 -10.395809
							CHANNELS 3 Xrotation Yrotation Zrotation
							JOINT newVegas:Left_CapeA1
							{
								OFFSET 0.000000 -8.688499 0.000000
								CHANNELS 3 Xrotation Yrotation Zrotation
								End Site
								{
									OFFSET 0.000000 8.688499 0.000000
								}
							}
						}
					}
				}
				JOINT newVegas:RightShoulder
				{
					OFFSET -15.263000 10.923401 -0.547700
					CHANNELS 3 Xrotation Yrotation Zrotation
					JOINT newVegas:RightArm
					{
						OFFSET -25.438599 -2.830597 -13.032500
						CHANNELS 3 Xrotation Yrotation Zrotation
						JOINT newVegas:RightForeArm
						{
							OFFSET -29.960503 0.000000 0.000000
							CHANNELS 3 Xrotation Yrotation Zrotation
							JOINT newVegas:RightHand
							{
								OFFSET -27.849251 0.000000 0.000000
								CHANNELS 3 Xrotation Yrotation Zrotation
								JOINT newVegas:RightHandThumb1
								{
									OFFSET -4.487587 -3.305161 6.305391
									CHANNELS 3 Xrotation Yrotation Zrotation
									JOINT newVegas:RightHandThumb2
									{
										OFFSET -5.480453 -3.164139 3.164143
										CHANNELS 3 Xrotation Yrotation Zrotation
										JOINT newVegas:RightHandThumb3
										{
											OFFSET -5.159721 -2.978973 2.978967
											CHANNELS 3 Xrotation Yrotation Zrotation
											End Site
											{
												OFFSET -2.494507 5.926697 1.738678
											}
										}
									}
								}
								JOINT newVegas:RightHandIndex1
								{
									OFFSET -18.578728 -0.527832 5.208049
									CHANNELS 3 Xrotation Yrotation Zrotation
									JOINT newVegas:RightHandIndex2
									{
										OFFSET -3.192009 0.000000 0.000000
										CHANNELS 3 Xrotation Yrotation Zrotation
										JOINT newVegas:RightHandIndex3
										{
											OFFSET -3.835129 0.000000 0.000000
											CHANNELS 3 Xrotation Yrotation Zrotation
											End Site
											{
												OFFSET 0.034599 3.816971 0.371180
											}
										}
									}
								}
								JOINT newVegas:RightHandMiddle1
								{
									OFFSET -18.476105 0.000000 0.000000
									CHANNELS 3 Xrotation Yrotation Zrotation
									JOINT newVegas:RightHandMiddle2
									{
										OFFSET -3.324875 0.000000 0.000000
										CHANNELS 3 Xrotation Yrotation Zrotation
										JOINT newVegas:RightHandMiddle3
										{
											OFFSET -4.596550 0.000000 0.000000
											CHANNELS 3 Xrotation Yrotation Zrotation
											End Site
											{
												OFFSET -0.057701 4.578827 0.399218
											}
										}
									}
								}
								JOINT newVegas:RightHandRing1
								{
									OFFSET -17.732719 0.121887 -4.201567
									CHANNELS 3 Xrotation Yrotation Zrotation
									JOINT newVegas:RightHandRing2
									{
										OFFSET -2.733170 0.000000 0.000000
										CHANNELS 3 Xrotation Yrotation Zrotation
										JOINT newVegas:RightHandRing3
										{
											OFFSET -3.178268 0.000000 0.000000
											CHANNELS 3 Xrotation Yrotation Zrotation
											End Site
											{
												OFFSET -0.119102 3.170624 0.185394
											}
										}
									}
								}
								JOINT newVegas:RightHandPinky1
								{
									OFFSET -15.989624 -0.606689 -7.535461
									CHANNELS 3 Xrotation Yrotation Zrotation
									JOINT newVegas:RightHandPinky2
									{
										OFFSET -2.538986 0.000000 0.000000
										CHANNELS 3 Xrotation Yrotation Zrotation
										JOINT newVegas:RightHandPinky3
										{
											OFFSET -2.593102 0.000000 0.000000
											CHANNELS 3 Xrotation Yrotation Zrotation
											End Site
											{
												OFFSET 0.150902 2.584198 0.152708
											}
										}
									}
								}
							}
							JOINT newVegas:Right_CapeC
							{
								OFFSET -15.715958 -8.608795 -6.935905
								CHANNELS 3 Xrotation Yrotation Zrotation
								JOINT newVegas:Right_CapeC1
								{
									OFFSET 0.000000 -8.688499 0.000000
									CHANNELS 3 Xrotation Yrotation Zrotation
									End Site
									{
										OFFSET 0.000000 8.688499 0.000000
									}
								}
							}
							JOINT newVegas:Right_Sleeve
							{
								OFFSET -0.267448 -0.649994 0.577675
								CHANNELS 3 Xrotation Yrotation Zrotation
								End Site
								{
									OFFSET 0.000000 15.991302 0.000000
								}
							}
						}
						JOINT newVegas:Right_CapeA
						{
							OFFSET -5.115540 -8.608795 -10.395824
							CHANNELS 3 Xrotation Yrotation Zrotation
							JOINT newVegas:Right_CapeA1
							{
								OFFSET 0.000000 -8.688499 0.000000
								CHANNELS 3 Xrotation Yrotation Zrotation
								End Site
								{
									OFFSET 0.000000 8.688499 0.000000
								}
							}
						}
						JOINT newVegas:Right_CapeB
						{
							OFFSET -26.118187 -8.608795 -7.079266
							CHANNELS 3 Xrotation Yrotation Zrotation
							JOINT newVegas:Right_CapeB1
							{
								OFFSET 0.000000 -8.688499 0.000000
								CHANNELS 3 Xrotation Yrotation Zrotation
								End Site
								{
									OFFSET 0.000000 8.688499 0.000000
								}
							}
						}
					}
				}
				JOINT newVegas:Left_Collar
				{
					OFFSET 18.625099 8.655502 8.828100
					CHANNELS 3 Xrotation Yrotation Zrotation
					JOINT newVegas:Left_Collar1
					{
						OFFSET 14.783401 10.540405 -1.259500
						CHANNELS 3 Xrotation Yrotation Zrotation
						End Site
						{
							OFFSET 0.000000 18.199875 0.000000
						}
					}
				}
				JOINT newVegas:Collar_Back
				{
					OFFSET 0.000000 15.630707 -20.132601
					CHANNELS 3 Xrotation Yrotation Zrotation
					End Site
					{
						OFFSET 0.000000 22.523010 0.000000
					}
				}
				JOINT newVegas:Left_Peck
				{
					OFFSET 17.239599 -5.132599 25.482599
					CHANNELS 3 Xrotation Yrotation Zrotation
					End Site
					{
						OFFSET 0.000000 22.523010 0.000000
					}
				}
				JOINT newVegas:Right_Peck
				{
					OFFSET -17.239599 -5.132202 25.482599
					CHANNELS 3 Xrotation Yrotation Zrotation
					End Site
					{
						OFFSET 0.000000 22.523010 0.000000
					}
				}
				JOINT newVegas:Right_Collar
				{
					OFFSET -18.625099 8.655792 8.828100
					CHANNELS 3 Xrotation Yrotation Zrotation
					JOINT newVegas:Right_Collar1
					{
						OFFSET -14.783401 10.539993 -1.259500
						CHANNELS 3 Xrotation Yrotation Zrotation
						End Site
						{
							OFFSET 0.000000 18.199631 0.000000
						}
					}
				}
			}
		}
		JOINT newVegas:Belly
		{
			OFFSET 0.000000 -6.540398 9.014299
			CHANNELS 3 Xrotation Yrotation Zrotation
			End Site
			{
				OFFSET 0.000000 11.566666 0.000000
			}
		}
	}
	JOINT newVegas:ElvisFacialAnim_Joint
	{
		OFFSET 1.000000 -95.330101 -8.825800
		CHANNELS 3 Xrotation Yrotation Zrotation
		End Site
		{
			OFFSET 0.000000 35.315800 0.000000
		}
	}
}
MOTION
Frames: 4
Frame Time: 0.033333
3.285845 34.942856 5.211887 9.131071 21.417397 15.901457 0.000001 -0.000002 -0.000000 -92.115708 -32.801714 28.349578 68.517514 -11.694667 -3.223102 28.522841 -2.375560 -46.809141 -0.000000 0.000001 -0.000000 0.000000 0.000001 0.000000 -53.436525 29.000358 -47.976526 135.873431 17.435610 -10.861690 26.823702 18.822994 -3.683503 0.000003 -0.000000 0.000001 0.000000 -0.000000 -0.000002 14.260834 -1.102471 -2.016441 28.477596 -4.266969 -3.441029 28.477599 -4.266969 -3.441024 -4.859402 -0.671505 0.789861 -4.859394 -0.671506 0.789857 -0.000000 -0.000001 0.000003 -4.859353 -0.671496 0.789862 -4.859468 -0.671518 0.789860 0.000003 0.000000 -0.000000 -0.000000 -0.000001 0.000001 1.076363 5.580029 12.652241 -21.582424 5.232054 -61.998816 21.841676 -140.243537 14.376805 61.870237 -9.365873 -44.379380 -12.048730 12.534458 2.449752 9.854072 30.337713 4.791550 -0.000000 -0.000003 -0.000001 5.417503 12.188345 -24.693835 0.224707 1.696112 -18.154629 0.000002 0.000000 0.000001 6.427185 3.821426 -38.123688 -0.071263 -0.389985 -12.195030 0.000000 -0.000000 -0.000002 0.695981 5.634206 -38.404105 -0.841660 -1.879593 -31.671973 0.000001 -0.000000 -0.000002 1.226537 8.210051 -42.097488 -1.501879 -5.243118 -30.598018 0.000002 -0.000005 -0.000000 -0.000000 -0.000001 0.000000 -0.000000 -0.000001 0.000000 -0.000001 -0.000001 0.000001 0.000000 -0.000002 -0.000000 0.000000 -0.000002 0.000000 0.000000 -0.000002 -0.000000 0.000000 -0.000003 0.000000 -17.751957 15.305954 -17.683498 -52.690968 15.355276 70.819663 2.441531 33.482250 -1.347483 43.528847 -5.947156 -15.941533 11.577697 5.114547 31.850456 -0.647680 -5.164379 -4.966406 -0.000001 0.000000 0.000003 4.984469 10.385359 -4.674310 0.021462 -0.621490 6.407613 0.000002 -0.000001 -0.000002 9.110129 -2.698231 -9.041582 -0.003325 -0.160246 1.474397 -0.000001 -0.000001 -0.000001 0.707967 -12.736280 -10.069320 -0.025939 -0.597069 8.144798 -0.000000 0.000001 -0.000002 5.001613 -26.199721 -0.132742 -0.063668 -1.078232 0.000089 -0.000000 0.000001 0.000003 -0.000002 -0.000000 -0.000000 -0.000002 -0.000003 -0.000002 -0.000002 -0.000001 -0.000001 -0.000002 0.000001 -0.000000 -0.000002 0.000001 0.000000 -0.000002 0.000001 -0.000000 -0.000002 0.000001 0.000000 -0.000001 0.000001 -0.000002 -0.000001 0.000001 -0.000002 -0.000001 0.000001 -0.000002 -0.000001 0.000001 -0.000002 -0.000001 0.000001 -0.000002 -0.000001 0.000001 -0.000002 -0.000001 0.000001 -0.000002 0.000000 0.000000 0.000000 0.000001 -0.000002 -0.000000 
3.279188 34.907021 5.121210 8.989184 21.456471 16.017893 0.000000 -0.000001 -0.000000 -92.206714 -32.535329 28.322530 68.391299 -11.522403 -3.206116 28.739851 -2.655866 -46.520449 -0.000000 0.000001 -0.000000 0.000000 -0.000002 -0.000004 -53.313383 29.232414 -48.033155 135.989572 17.506726 -10.873977 26.825689 18.885295 -3.554041 0.000004 -0.000000 -0.000001 0.000001 0.000001 -0.000001 14.316281 -1.052041 -2.004071 28.589343 -4.186886 -3.422830 28.589389 -4.186890 -3.422820 -4.959112 -0.674382 0.785786 -4.959114 -0.674382 0.785782 0.000000 0.000001 0.000000 -4.959105 -0.674370 0.785784 -4.959123 -0.674386 0.785779 0.000001 0.000000 -0.000001 0.000000 0.000001 0.000002 1.088655 5.655139 12.757771 -21.909070 5.204412 -62.188715 21.623262 -140.928031 14.028325 61.756248 -8.726533 -44.487344 -11.937596 11.188982 2.236492 9.748675 30.117381 4.798458 0.000001 -0.000002 0.000000 5.545553 12.506316 -24.597489 0.246477 1.712153 -18.456797 0.000001 -0.000002 -0.000001 6.617260 3.614237 -38.457858 -0.082477 -0.439772 -13.148285 -0.000001 0.000001 0.000001 0.675938 5.598858 -38.717050 -0.892753 -1.943347 -32.399702 0.000000 -0.000000 -0.000003 1.207865 8.191028 -42.123102 -1.585612 -5.351641 -31.342864 0.000000 -0.000005 -0.000004 -0.000001 0.000000 -0.000000 -0.000001 0.000000 -0.000000 -0.000002 0.000000 0.000000 0.000000 -0.000002 0.000001 0.000000 -0.000003 0.000001 0.000000 -0.000002 0.000001 0.000000 -0.000003 0.000001 -17.586557 15.039172 -17.794350 -52.695422 15.749207 70.376828 2.439039 33.605484 -1.350029 42.950842 -5.983594 -16.060633 11.577688 5.114547 31.850432 -0.647674 -5.164379 -4.966380 0.000002 -0.000000 -0.000001 4.996449 10.325971 -4.671867 0.021468 -0.621475 6.407612 -0.000000 -0.000002 -0.000003 9.114651 -2.717462 -9.036924 -0.003320 -0.160281 1.474408 -0.000001 -0.000001 -0.000001 0.702320 -12.716841 -10.071727 -0.025937 -0.597074 8.144785 0.000002 0.000000 0.000005 4.982856 -26.141968 -0.149405 -0.063676 -1.078250 0.000055 -0.000002 -0.000000 0.000001 0.000000 0.000001 -0.000000 -0.000002 0.000001 -0.000002 0.000000 0.000001 -0.000001 0.000004 0.000000 0.000000 0.000004 0.000000 0.000000 0.000004 0.000000 0.000000 0.000004 -0.000000 0.000000 -0.000000 0.000000 -0.000001 -0.000000 0.000000 -0.000001 -0.000000 0.000000 -0.000001 -0.000000 0.000000 -0.000001 -0.000000 0.000000 -0.000001 -0.000000 0.000000 -0.000001 -0.000000 0.000000 -0.000001 -0.000001 -0.000001 -0.000000 0.000000 -0.000001 -0.000000 
3.295015 34.868340 5.026556 8.806464 21.462478 16.160904 -0.000000 -0.000001 -0.000000 -92.275658 -32.294138 28.283875 68.346015 -11.357696 -3.194249 28.919018 -2.909029 -46.240941 0.000000 -0.000002 -0.000000 -0.000001 0.000002 0.000003 -53.128370 29.531914 -48.127862 136.087271 17.576107 -10.891047 26.856990 19.016281 -3.436945 -0.000000 -0.000000 0.000000 -0.000000 -0.000002 -0.000001 14.356882 -0.997241 -1.972667 28.672069 -4.092446 -3.371391 28.672048 -4.092455 -3.371390 -5.072444 -0.681937 0.756013 -5.072424 -0.681947 0.756078 0.000000 0.000000 -0.000001 -5.072367 -0.681744 0.755979 -5.072529 -0.682086 0.756043 -0.000001 0.000000 -0.000000 0.000000 0.000000 -0.000001 1.096404 5.691362 12.842903 -21.897960 5.278988 -62.462333 21.453501 -141.481153 13.752867 61.691225 -8.307617 -44.257666 -11.833405 9.825936 1.985361 9.626421 29.870060 4.775048 0.000002 -0.000001 -0.000004 5.677664 12.847519 -24.494209 0.295146 1.718753 -18.778263 -0.000001 -0.000001 -0.000001 6.788365 3.395133 -38.907712 -0.094530 -0.489546 -14.105570 0.000001 -0.000001 -0.000003 0.651103 5.539569 -39.089951 -0.973043 -2.018478 -33.230848 -0.000000 -0.000001 -0.000000 1.155172 8.137545 -42.195191 -1.706083 -5.464453 -32.214461 0.000001 -0.000003 -0.000003 -0.000002 0.000000 0.000000 -0.000002 0.000000 0.000000 -0.000002 0.000001 0.000001 -0.000001 0.000001 -0.000002 -0.000001 0.000000 -0.000001 -0.000001 0.000001 -0.000002 -0.000001 -0.000001 -0.000002 -17.495436 14.708548 -18.049615 -52.745753 16.082944 70.166007 2.421278 33.464751 -1.334545 42.505425 -5.936339 -16.292235 11.577691 5.114531 31.850453 -0.647658 -5.164365 -4.966387 0.000000 -0.000003 -0.000001 5.002506 10.295973 -4.670636 0.021467 -0.621488 6.407608 0.000001 0.000001 -0.000002 9.116931 -2.727189 -9.034568 -0.003325 -0.160255 1.474391 -0.000001 -0.000002 -0.000000 0.699486 -12.707002 -10.072969 -0.025937 -0.597053 8.144808 -0.000002 0.000002 0.000003 4.973385 -26.112824 -0.157833 -0.063674 -1.078218 0.000029 -0.000000 0.000002 -0.000005 0.000003 -0.000000 0.000001 0.000001 -0.000002 0.000001 0.000003 -0.000001 0.000001 -0.000003 -0.000002 0.000000 -0.000003 -0.000002 0.000000 -0.000003 -0.000002 0.000000 -0.000003 -0.000002 0.000000 -0.000000 0.000000 -0.000002 -0.000000 0.000000 -0.000002 -0.000000 0.000000 -0.000002 -0.000000 0.000000 -0.000002 -0.000000 0.000000 -0.000002 -0.000000 0.000000 -0.000002 -0.000000 0.000000 -0.000002 0.000002 -0.000003 -0.000000 -0.000000 -0.000001 -0.000000 
3.328644 34.823967 4.925411 8.575840 21.428812 16.344402 -0.000000 0.000001 -0.000000 -92.320061 -32.041712 28.256651 68.373561 -11.188681 -3.186317 29.069893 -3.164516 -45.938729 -0.000000 0.000002 -0.000000 -0.000002 0.000002 0.000001 -52.860965 29.918899 -48.248033 136.180899 17.655073 -10.912732 26.891887 19.205155 -3.304378 0.000003 0.000000 -0.000001 0.000000 -0.000000 -0.000002 14.391770 -0.945514 -1.924423 28.743779 -3.999185 -3.289769 28.743748 -3.999191 -3.289766 -5.201064 -0.688449 0.687050 -5.201030 -0.688443 0.687042 0.000001 0.000000 -0.000001 -5.201034 -0.688454 0.687055 -5.201114 -0.688475 0.687056 0.000000 0.000000 0.000000 0.000001 0.000000 -0.000000 1.081017 5.557341 12.775606 -21.569317 5.512243 -62.407070 21.300835 -141.996204 13.501102 61.572366 -7.920456 -43.677960 -11.733809 8.444270 1.705205 9.491548 29.603017 4.725368 0.000000 -0.000000 -0.000005 5.813190 13.208492 -24.381564 0.366193 1.716278 -19.109303 0.000000 -0.000001 0.000002 6.942249 3.167043 -39.443892 -0.107478 -0.539276 -15.065973 -0.000001 0.000000 0.000001 0.621979 5.460526 -39.507631 -1.078144 -2.100909 -34.139604 0.000001 -0.000002 -0.000003 1.073474 8.055213 -42.306666 -1.856727 -5.577220 -33.181674 0.000001 -0.000005 -0.000002 0.000001 -0.000000 -0.000000 0.000001 -0.000000 -0.000000 0.000000 0.000000 -0.000000 -0.000002 0.000001 0.000002 -0.000002 0.000000 0.000000 -0.000002 0.000001 0.000002 -0.000002 -0.000000 0.000002 -17.475901 14.201335 -18.735451 -53.149947 16.020137 70.579282 2.367891 32.845403 -1.282647 42.429275 -5.624769 -16.639510 11.577707 5.114542 31.850453 -0.647655 -5.164379 -4.966391 -0.000002 -0.000000 -0.000000 5.004127 10.288019 -4.670315 0.021459 -0.621498 6.407593 -0.000003 0.000000 0.000002 9.117551 -2.729743 -9.033946 -0.003321 -0.160234 1.474405 -0.000000 -0.000001 -0.000001 0.698728 -12.704408 -10.073304 -0.025934 -0.597043 8.144793 0.000001 0.000001 -0.000003 4.970894 -26.105070 -0.160044 -0.063669 -1.078219 0.000055 -0.000000 0.000001 0.000002 0.000000 0.000001 -0.000003 -0.000002 0.000000 -0.000001 0.000000 0.000001 -0.000003 0.000002 0.000000 0.000001 0.000002 0.000000 0.000001 0.000002 0.000000 0.000001 0.000002 -0.000000 0.000001 -0.000000 0.000000 0.000001 -0.000000 0.000000 0.000001 -0.000000 0.000000 0.000001 -0.000000 0.000000 0.000001 -0.000000 0.000000 0.000001 -0.000000 0.000000 0.000001 -0.000000 0.000000 0.000001 -0.000000 0.000000 -0.000002 -0.000000 0.000001 -0.000000 
